<?xml version="1.0" encoding="UTF-8"?>
<!DOCTYPE svg PUBLIC "-//W3C//DTD SVG 1.1//EN" "http://www.w3.org/Graphics/SVG/1.1/DTD/svg11.dtd">
<!-- Creator: CorelDRAW X6 -->
<svg xmlns="http://www.w3.org/2000/svg" xml:space="preserve" width="100%" height="100%" version="1.1" style="shape-rendering:geometricPrecision; text-rendering:geometricPrecision; image-rendering:optimizeQuality; fill-rule:evenodd; clip-rule:evenodd"
viewBox="0 0 500 500"
 xmlns:xlink="http://www.w3.org/1999/xlink">
 <defs>
  <style type="text/css">
   <![CDATA[
    .fil4 {fill:none}
    .fil5 {fill:#303030}
    .fil6 {fill:#505050}
    .fil3 {fill:#979797}
    .fil1 {fill:url(#id0)}
    .fil2 {fill:url(#id1)}
    .fil0 {fill:url(#id2)}
   ]]>
  </style>
  <linearGradient id="id0" gradientUnits="userSpaceOnUse" x1="155.911" y1="344.543" x2="344.089" y2="344.543">
   <stop offset="0" style="stop-color:#0083DB"/>
   <stop offset="0.180392" style="stop-color:#5DBEFF"/>
   <stop offset="0.678431" style="stop-color:#0083DB"/>
   <stop offset="0.858824" style="stop-color:#008EED"/>
   <stop offset="1" style="stop-color:#0062A4"/>
  </linearGradient>
  <linearGradient id="id1" gradientUnits="userSpaceOnUse" x1="214.873" y1="30.001" x2="285.127" y2="30.001">
   <stop offset="0" style="stop-color:#CBCBCB"/>
   <stop offset="0.160784" style="stop-color:#F2F2F2"/>
   <stop offset="0.521569" style="stop-color:#D8D8D8"/>
   <stop offset="0.701961" style="stop-color:#BEBEBE"/>
   <stop offset="0.858824" style="stop-color:#CBCBCB"/>
   <stop offset="1" style="stop-color:#7D7D7D"/>
  </linearGradient>
  <linearGradient id="id2" gradientUnits="userSpaceOnUse" xlink:href="#id1" x1="159.675" y1="124.998" x2="340.325" y2="124.998">
  </linearGradient>
 </defs>
 <g id="Layer_x0020_1">
  <metadata id="CorelCorpID_0Corel-Layer"/>
  <path class="fil0" d="M156 209l188 0c0,-54 0,-109 0,-163 0,-3 -2,-5 -5,-5 -59,0 -119,0 -178,0 -3,0 -5,2 -5,5 0,54 0,109 0,163z"/>
  <path class="fil1" d="M344 475c0,3 -2,5 -5,5l-178 0c-3,0 -5,-2 -5,-5l0 -266 188 0 0 266z"/>
  <path class="fil2" d="M213 40c3,0 6,-2 6,-5l0 -10c0,-3 2,-5 5,-5l52 0c3,0 5,2 5,5l0 10c0,3 3,5 6,5l-74 0z"/>
  <path class="fil3" d="M344 52l0 -7c0,-3 -2,-5 -5,-5 -59,0 -119,0 -178,0 -3,0 -5,2 -5,5l0 7c0,-3 2,-5 5,-5 59,0 119,0 178,0 3,0 5,2 5,5z"/>
  <line class="fil4" x1="156" y1="355" x2="344" y2= "355" />
  <path class="fil5" d="M240 99l20 0 0 21 21 0 0 21 -21 0 0 21 -20 0 0 -21 -21 0 0 -21 21 0 0 -21zm41 283l0 20 -62 0 0 -20 62 0z"/>
  <path class="fil6" d="M344 465l0 10c0,3 -2,5 -5,5 -59,0 -119,0 -178,0 -3,0 -5,-2 -5,-5l0 -10c0,3 2,5 5,5 59,0 119,0 178,0 3,0 5,-2 5,-5z"/>
 </g>
</svg>
